<?xml version="1.0" standalone="no"?>
<!DOCTYPE svg PUBLIC "-//W3C//DTD SVG 20010904//EN"
 "http://www.w3.org/TR/2001/REC-SVG-20010904/DTD/svg10.dtd">
<svg version="1.0" xmlns="http://www.w3.org/2000/svg"
 width="1102.000000pt" height="1280.000000pt" viewBox="0 0 1102.000000 1280.000000"
 preserveAspectRatio="xMidYMid meet">
<g transform="translate(0.000000,1280.000000) scale(0.100000,-0.100000)"
fill="#000000" stroke="none">
<path d="M3170 12790 c-30 -4 -106 -13 -169 -20 -924 -92 -1855 -571 -2318
-1193 -327 -440 -558 -1086 -637 -1787 -39 -338 -53 -648 -38 -819 7 -69 19
-205 27 -301 19 -217 47 -410 86 -605 52 -255 100 -409 221 -704 206 -504 243
-625 322 -1057 64 -346 108 -715 138 -1139 17 -240 17 -999 0 -1120 -29 -202
-89 -392 -276 -873 -179 -459 -238 -632 -285 -837 -29 -130 -31 -141 -41 -260
-38 -484 183 -791 801 -1109 181 -93 642 -304 851 -390 753 -307 1629 -493
2573 -546 105 -6 258 -15 340 -20 222 -15 358 -12 580 10 599 62 1087 197
1361 379 172 114 214 209 234 531 24 375 104 1110 146 1340 65 351 139 556
300 832 331 566 697 1112 1504 2243 506 710 617 867 865 1230 109 160 271 394
359 520 332 477 490 730 616 990 148 305 218 544 254 861 42 374 43 414 16
699 -52 558 -202 986 -445 1265 -181 209 -457 384 -745 474 -238 74 -423 100
-710 100 -302 -1 -515 -29 -840 -109 -261 -65 -248 -64 -262 -24 -24 70 -98
201 -148 264 -132 162 -320 268 -570 320 -170 36 -333 45 -816 45 -471 0 -609
7 -757 36 -226 45 -384 107 -869 345 -552 270 -740 342 -1016 389 -241 40
-532 59 -652 40z m525 -205 c277 -36 505 -98 755 -205 74 -32 198 -83 274
-115 178 -72 305 -136 382 -191 71 -50 156 -141 152 -161 -2 -8 -40 -29 -84
-47 -204 -83 -386 -208 -564 -386 -230 -230 -412 -494 -580 -844 -208 -431
-327 -867 -350 -1281 -5 -93 -15 -244 -21 -335 -28 -395 16 -623 141 -733 45
-39 46 -35 31 132 -48 566 4 1173 145 1683 207 753 595 1299 1102 1553 525
262 1336 340 1935 185 703 -181 1028 -596 1077 -1374 16 -255 -13 -632 -64
-841 -81 -328 -220 -584 -621 -1145 -258 -361 -445 -655 -470 -738 -6 -21 -5
-21 22 -11 211 80 461 325 699 684 308 466 525 997 565 1381 10 98 9 164 -6
411 -34 566 -6 722 161 890 92 92 223 158 399 202 203 50 326 64 530 58 161
-4 192 -8 300 -36 476 -126 817 -489 1010 -1073 100 -305 146 -603 148 -963 1
-177 -2 -237 -17 -305 -97 -458 -286 -969 -491 -1324 -82 -142 -558 -910 -753
-1216 -358 -560 -681 -1013 -951 -1335 -113 -134 -255 -311 -378 -471 -278
-362 -494 -566 -670 -635 -83 -32 -191 -32 -256 0 -62 30 -133 100 -157 154
-37 81 -20 193 47 317 62 115 251 416 463 740 404 617 579 895 568 905 -12 13
-135 -84 -221 -175 -115 -121 -199 -245 -402 -594 -184 -317 -243 -408 -346
-536 -116 -144 -245 -257 -361 -316 -315 -160 -873 69 -1014 416 -22 53 -27
86 -32 180 -12 295 77 586 336 1093 2 4 -1 7 -6 7 -21 0 -144 -168 -187 -255
-24 -49 -81 -198 -125 -330 -85 -250 -153 -398 -217 -475 -171 -206 -339 -230
-791 -115 -54 13 -176 40 -272 60 -287 60 -430 116 -526 206 -97 92 -120 191
-110 464 9 256 -13 574 -59 848 -15 88 -45 237 -49 237 0 0 -1 -190 -1 -423
-1 -387 -3 -434 -23 -564 -27 -169 -70 -308 -118 -381 -126 -190 -557 -260
-943 -152 -90 25 -201 79 -258 126 -76 62 -89 106 -113 379 -48 557 -70 798
-74 802 -20 20 -56 -287 -56 -477 0 -227 -34 -438 -87 -547 -73 -149 -291
-293 -441 -293 -138 1 -215 88 -256 289 -23 110 -29 212 -31 556 -3 446 -29
624 -171 1188 -73 288 -87 332 -79 247 3 -30 14 -147 25 -260 76 -797 108
-1357 90 -1567 -13 -154 -50 -342 -80 -406 -63 -134 -148 -116 -209 43 -68
175 -111 381 -156 746 -60 487 -90 610 -287 1174 -149 425 -182 529 -228 710
-93 370 -133 702 -133 1110 0 704 134 1319 412 1895 138 285 261 464 461 669
221 226 461 400 760 550 424 212 835 322 1345 360 103 8 444 -4 560 -19z
m-1245 -7385 c405 -12 670 -25 890 -45 932 -85 1777 -286 2497 -594 154 -66
1058 -520 1163 -584 96 -59 167 -116 240 -194 82 -86 113 -148 118 -232 8
-123 -21 -204 -168 -460 -101 -177 -138 -273 -200 -526 -95 -386 -153 -862
-167 -1378 -3 -136 -10 -250 -14 -253 -5 -2 -57 20 -118 50 -1355 680 -3019
1076 -4515 1076 -597 0 -1214 -71 -1708 -195 -96 -25 -101 -21 -93 68 8 95 41
282 66 382 37 144 90 305 221 664 171 472 234 690 269 931 7 50 13 218 14 405
2 357 10 425 66 547 73 157 251 264 524 314 187 34 394 40 915 24z m403 -3390
c1307 -77 2359 -337 3332 -822 401 -200 539 -330 467 -441 -29 -43 -76 -73
-201 -125 -218 -92 -485 -170 -731 -211 -419 -71 -933 -67 -1457 13 -257 40
-605 118 -913 207 -205 59 -973 316 -1140 382 -334 130 -546 281 -621 441 -29
61 -31 73 -27 154 2 67 9 98 28 137 68 139 228 224 490 260 117 16 538 19 773
5z"/>
<path d="M3170 11774 c-30 -8 -88 -30 -129 -50 -453 -213 -887 -989 -858
-1533 5 -106 28 -204 52 -229 10 -11 14 -3 19 45 36 308 164 688 327 969 219
379 507 648 809 754 85 30 90 36 44 49 -55 15 -199 12 -264 -5z"/>
<path d="M9300 10466 c0 -3 26 -72 59 -153 163 -409 204 -642 166 -940 -28
-222 -60 -335 -203 -723 -86 -236 -122 -344 -122 -371 0 -19 45 27 104 106
171 228 286 538 337 915 19 139 17 402 -5 535 -39 236 -122 424 -250 563 -32
35 -86 77 -86 68z"/>
</g>
</svg>
